<svg class="checkered-flag-icon" width="48" height="48" viewBox="0 0 24 24" fill="none" xmlns="http://www.w3.org/2000/svg">
    <rect x="3" y="3" width="4" height="4" fill="black"/>
    <rect x="7" y="3" width="4" height="4" fill="white"/>
    <rect x="11" y="3" width="4" height="4" fill="black"/>
    <rect x="15" y="3" width="4" height="4" fill="white"/>
    <rect x="19" y="3" width="2" height="4" fill="black"/>
    <rect x="3" y="7" width="4" height="4" fill="white"/>
    <rect x="7" y="7" width="4" height="4" fill="black"/>
    <rect x="11" y="7" width="4" height="4" fill="white"/>
    <rect x="15" y="7" width="4" height="4" fill="black"/>
    <rect x="19" y="7" width="2" height="4" fill="white"/>
    <rect x="3" y="11" width="4" height="4" fill="black"/>
    <rect x="7" y="11" width="4" height="4" fill="white"/>
    <rect x="11" y="11" width="4" height="4" fill="black"/>
    <rect x="15" y="11" width="4" height="4" fill="white"/>
    <rect x="19" y="11" width="2" height="4" fill="black"/>
    <rect x="3" y="15" width="4" height="4" fill="white"/>
    <rect x="7" y="15" width="4" height="4" fill="black"/>
    <rect x="11" y="15" width="4" height="4" fill="white"/>
    <rect x="15" y="15" width="4" height="4" fill="black"/>
    <rect x="19" y="15" width="2" height="4" fill="white"/>
    <path d="M2 3v18" stroke="black" stroke-width="2" stroke-linecap="round"/>
</svg>
